<?xml version="1.0" encoding="UTF-8" standalone="no"?>
<!DOCTYPE svg PUBLIC "-//W3C//DTD SVG 1.1//EN"
 "http://www.w3.org/Graphics/SVG/1.1/DTD/svg11.dtd">
<!-- Generated by graphviz version 2.43.0 (0)
 -->
<!-- Title: finite_state_machine Pages: 1 -->
<svg width="576pt" height="210pt"
 viewBox="0.00 0.00 576.00 210.41" xmlns="http://www.w3.org/2000/svg" xmlns:xlink="http://www.w3.org/1999/xlink">
<g id="graph0" class="graph" transform="scale(1.01 1.01) rotate(0) translate(4 208.59)">
<title>finite_state_machine</title>
<polygon fill="white" stroke="transparent" points="-4,4 -4,-208.59 577.97,-208.59 577.97,4 -4,4"/>
<!-- LR_0 -->
<g id="node1" class="node">
<title>LR_0</title>
<ellipse fill="none" stroke="black" cx="37.8" cy="-100.8" rx="33.62" ry="33.62"/>
<ellipse fill="none" stroke="black" cx="37.8" cy="-100.8" rx="37.6" ry="37.6"/>
<text text-anchor="middle" x="37.8" y="-97.1" font-family="Times,serif" font-size="14.00">LR_0</text>
</g>
<!-- LR_1 -->
<g id="node4" class="node">
<title>LR_1</title>
<ellipse fill="none" stroke="black" cx="286.99" cy="-170.8" rx="33.6" ry="33.6"/>
<text text-anchor="middle" x="286.99" y="-167.1" font-family="Times,serif" font-size="14.00">LR_1</text>
</g>
<!-- LR_0&#45;&gt;LR_1 -->
<g id="edge8" class="edge">
<title>LR_0&#45;&gt;LR_1</title>
<path fill="none" stroke="black" d="M71.51,-118.72C88.66,-127.45 110.28,-137.4 130.59,-143.8 167.67,-155.47 211.41,-162.5 243.02,-166.45"/>
<polygon fill="black" stroke="black" points="242.9,-169.96 253.25,-167.67 243.73,-163.01 242.9,-169.96"/>
<text text-anchor="middle" x="164.39" y="-162.6" font-family="Times,serif" font-size="14.00">7</text>
</g>
<!-- LR_3 -->
<g id="node5" class="node">
<title>LR_3</title>
<ellipse fill="none" stroke="black" cx="164.39" cy="-100.8" rx="33.6" ry="33.6"/>
<text text-anchor="middle" x="164.39" y="-97.1" font-family="Times,serif" font-size="14.00">LR_3</text>
</g>
<!-- LR_0&#45;&gt;LR_3 -->
<g id="edge9" class="edge">
<title>LR_0&#45;&gt;LR_3</title>
<path fill="none" stroke="black" d="M75.84,-100.8C89.81,-100.8 105.82,-100.8 120.29,-100.8"/>
<polygon fill="black" stroke="black" points="120.51,-104.3 130.51,-100.8 120.51,-97.3 120.51,-104.3"/>
<text text-anchor="middle" x="103.09" y="-104.6" font-family="Times,serif" font-size="14.00">10</text>
</g>
<!-- LR_2 -->
<g id="node6" class="node">
<title>LR_2</title>
<ellipse fill="none" stroke="black" cx="286.99" cy="-33.8" rx="33.6" ry="33.6"/>
<text text-anchor="middle" x="286.99" y="-30.1" font-family="Times,serif" font-size="14.00">LR_2</text>
</g>
<!-- LR_0&#45;&gt;LR_2 -->
<g id="edge10" class="edge">
<title>LR_0&#45;&gt;LR_2</title>
<path fill="none" stroke="black" d="M67.46,-77.33C84.67,-64.67 107.62,-50.17 130.59,-42.8 167.23,-31.03 211.19,-29.57 242.99,-30.59"/>
<polygon fill="black" stroke="black" points="243.14,-34.1 253.28,-31.02 243.43,-27.11 243.14,-34.1"/>
<text text-anchor="middle" x="164.39" y="-46.6" font-family="Times,serif" font-size="14.00">8</text>
</g>
<!-- LR_5 -->
<g id="node2" class="node">
<title>LR_5</title>
<ellipse fill="none" stroke="black" cx="536.17" cy="-136.8" rx="33.62" ry="33.62"/>
<ellipse fill="none" stroke="black" cx="536.17" cy="-136.8" rx="37.6" ry="37.6"/>
<text text-anchor="middle" x="536.17" y="-133.1" font-family="Times,serif" font-size="14.00">LR_5</text>
</g>
<!-- LR_4 -->
<g id="node3" class="node">
<title>LR_4</title>
<ellipse fill="none" stroke="black" cx="409.58" cy="-101.8" rx="33.6" ry="33.6"/>
<text text-anchor="middle" x="409.58" y="-98.1" font-family="Times,serif" font-size="14.00">LR_4</text>
</g>
<!-- LR_4&#45;&gt;LR_5 -->
<g id="edge1" class="edge">
<title>LR_4&#45;&gt;LR_5</title>
<path fill="none" stroke="black" d="M442.34,-110.72C456.65,-114.74 473.82,-119.56 489.48,-123.96"/>
<polygon fill="black" stroke="black" points="488.94,-127.44 499.51,-126.78 490.83,-120.7 488.94,-127.44"/>
<text text-anchor="middle" x="470.88" y="-124.6" font-family="Times,serif" font-size="14.00">14</text>
</g>
<!-- LR_1&#45;&gt;LR_5 -->
<g id="edge2" class="edge">
<title>LR_1&#45;&gt;LR_5</title>
<path fill="none" stroke="black" d="M320.55,-166.32C363.51,-160.41 439.4,-149.97 488.46,-143.22"/>
<polygon fill="black" stroke="black" points="489.07,-146.67 498.5,-141.84 488.12,-139.74 489.07,-146.67"/>
<text text-anchor="middle" x="409.58" y="-161.6" font-family="Times,serif" font-size="14.00">21</text>
</g>
<!-- LR_1&#45;&gt;LR_4 -->
<g id="edge3" class="edge">
<title>LR_1&#45;&gt;LR_4</title>
<path fill="none" stroke="black" d="M316.56,-154.44C332.82,-145.15 353.36,-133.39 370.92,-123.34"/>
<polygon fill="black" stroke="black" points="372.85,-126.27 379.79,-118.27 369.37,-120.2 372.85,-126.27"/>
<text text-anchor="middle" x="348.28" y="-143.6" font-family="Times,serif" font-size="14.00">1</text>
</g>
<!-- LR_3&#45;&gt;LR_4 -->
<g id="edge6" class="edge">
<title>LR_3&#45;&gt;LR_4</title>
<path fill="none" stroke="black" d="M198.19,-100.93C241.43,-101.11 317.61,-101.42 365.47,-101.62"/>
<polygon fill="black" stroke="black" points="365.51,-105.12 375.52,-101.66 365.54,-98.12 365.51,-105.12"/>
<text text-anchor="middle" x="286.99" y="-104.6" font-family="Times,serif" font-size="14.00">5</text>
</g>
<!-- LR_3&#45;&gt;LR_1 -->
<g id="edge4" class="edge">
<title>LR_3&#45;&gt;LR_1</title>
<path fill="none" stroke="black" d="M193.97,-117.39C210.22,-126.82 230.77,-138.75 248.32,-148.94"/>
<polygon fill="black" stroke="black" points="246.79,-152.09 257.19,-154.08 250.3,-146.04 246.79,-152.09"/>
<text text-anchor="middle" x="225.69" y="-143.6" font-family="Times,serif" font-size="14.00">11</text>
</g>
<!-- LR_3&#45;&gt;LR_2 -->
<g id="edge5" class="edge">
<title>LR_3&#45;&gt;LR_2</title>
<path fill="none" stroke="black" d="M194.28,-84.75C210.42,-75.78 230.72,-64.5 248.12,-54.83"/>
<polygon fill="black" stroke="black" points="249.88,-57.86 256.92,-49.95 246.48,-51.74 249.88,-57.86"/>
<text text-anchor="middle" x="225.69" y="-74.6" font-family="Times,serif" font-size="14.00">2</text>
</g>
<!-- LR_2&#45;&gt;LR_4 -->
<g id="edge7" class="edge">
<title>LR_2&#45;&gt;LR_4</title>
<path fill="none" stroke="black" d="M316.87,-50.08C333.01,-59.19 353.32,-70.64 370.72,-80.45"/>
<polygon fill="black" stroke="black" points="369.08,-83.54 379.51,-85.41 372.52,-77.45 369.08,-83.54"/>
<text text-anchor="middle" x="348.28" y="-75.6" font-family="Times,serif" font-size="14.00">12</text>
</g>
</g>
</svg>
