<?xml version="1.0" encoding="UTF-8" standalone="no"?>
<!DOCTYPE svg PUBLIC "-//W3C//DTD SVG 1.1//EN"
 "http://www.w3.org/Graphics/SVG/1.1/DTD/svg11.dtd">
<!-- Generated by graphviz version 2.43.0 (0)
 -->
<!-- Title: finite_state_machine Pages: 1 -->
<svg width="472pt" height="428pt"
 viewBox="0.00 0.00 472.00 428.00" xmlns="http://www.w3.org/2000/svg" xmlns:xlink="http://www.w3.org/1999/xlink">
<g id="graph0" class="graph" transform="scale(1 1) rotate(0) translate(4 424)">
<title>finite_state_machine</title>
<polygon fill="white" stroke="transparent" points="-4,4 -4,-424 468,-424 468,4 -4,4"/>
<!-- 2 -->
<g id="node1" class="node">
<title>2</title>
<ellipse fill="none" stroke="black" cx="18" cy="-127" rx="18" ry="18"/>
<text text-anchor="middle" x="18" y="-123.3" font-family="Times,serif" font-size="14.00">2</text>
</g>
<!-- 0 -->
<g id="node2" class="node">
<title>0</title>
<ellipse fill="none" stroke="black" cx="100" cy="-213" rx="18" ry="18"/>
<text text-anchor="middle" x="100" y="-209.3" font-family="Times,serif" font-size="14.00">0</text>
</g>
<!-- 2&#45;&gt;0 -->
<g id="edge1" class="edge">
<title>2&#45;&gt;0</title>
<path fill="none" stroke="black" d="M33.72,-136.69C43,-143.21 54.91,-152.35 64,-162 71.73,-170.21 79.01,-180.26 84.9,-189.27"/>
<polygon fill="black" stroke="black" points="82,-191.23 90.3,-197.82 87.92,-187.49 82,-191.23"/>
<text text-anchor="middle" x="59" y="-165.8" font-family="Times,serif" font-size="14.00">8</text>
</g>
<!-- 3 -->
<g id="node3" class="node">
<title>3</title>
<ellipse fill="none" stroke="black" cx="446" cy="-246" rx="18" ry="18"/>
<text text-anchor="middle" x="446" y="-242.3" font-family="Times,serif" font-size="14.00">3</text>
</g>
<!-- 2&#45;&gt;3 -->
<g id="edge2" class="edge">
<title>2&#45;&gt;3</title>
<path fill="none" stroke="black" d="M20.28,-145.24C25.1,-207.09 44.76,-405 99,-405 99,-405 99,-405 365,-405 422.93,-405 438.92,-319.73 443.32,-274.08"/>
<polygon fill="black" stroke="black" points="446.83,-274.19 444.18,-263.93 439.85,-273.6 446.83,-274.19"/>
<text text-anchor="middle" x="227.5" y="-408.8" font-family="Times,serif" font-size="14.00">2</text>
</g>
<!-- 4 -->
<g id="node4" class="node">
<title>4</title>
<ellipse fill="none" stroke="black" cx="364" cy="-155" rx="18" ry="18"/>
<text text-anchor="middle" x="364" y="-151.3" font-family="Times,serif" font-size="14.00">4</text>
</g>
<!-- 2&#45;&gt;4 -->
<g id="edge3" class="edge">
<title>2&#45;&gt;4</title>
<path fill="none" stroke="black" d="M35.89,-123.23C78.65,-114.17 194.6,-92.7 291,-103 307.73,-104.79 313.71,-102.12 328,-111 335.99,-115.96 342.92,-123.42 348.46,-130.79"/>
<polygon fill="black" stroke="black" points="345.74,-133.01 354.3,-139.25 351.5,-129.03 345.74,-133.01"/>
<text text-anchor="middle" x="182" y="-106.8" font-family="Times,serif" font-size="14.00">2</text>
</g>
<!-- 0&#45;&gt;2 -->
<g id="edge11" class="edge">
<title>0&#45;&gt;2</title>
<path fill="none" stroke="black" d="M84.74,-203.23C75.43,-196.46 63.31,-186.92 54,-177 46.58,-169.08 39.49,-159.5 33.66,-150.85"/>
<polygon fill="black" stroke="black" points="36.47,-148.75 28.08,-142.28 30.6,-152.57 36.47,-148.75"/>
<text text-anchor="middle" x="59" y="-188.8" font-family="Times,serif" font-size="14.00">0</text>
</g>
<!-- 0&#45;&gt;3 -->
<g id="edge12" class="edge">
<title>0&#45;&gt;3</title>
<path fill="none" stroke="black" d="M102.35,-230.97C106.4,-270.6 122.13,-362 181,-362 181,-362 181,-362 365,-362 407.79,-362 429.45,-307.85 438.88,-273.55"/>
<polygon fill="black" stroke="black" points="442.34,-274.17 441.43,-263.62 435.56,-272.44 442.34,-274.17"/>
<text text-anchor="middle" x="273" y="-365.8" font-family="Times,serif" font-size="14.00">0</text>
</g>
<!-- 1 -->
<g id="node6" class="node">
<title>1</title>
<ellipse fill="none" stroke="black" cx="182" cy="-185" rx="18" ry="18"/>
<text text-anchor="middle" x="182" y="-181.3" font-family="Times,serif" font-size="14.00">1</text>
</g>
<!-- 0&#45;&gt;1 -->
<g id="edge13" class="edge">
<title>0&#45;&gt;1</title>
<path fill="none" stroke="black" d="M111.26,-198.71C117.48,-191.31 126.11,-183.01 136,-179 141.8,-176.65 148.34,-176.33 154.59,-177.02"/>
<polygon fill="black" stroke="black" points="154.19,-180.5 164.67,-178.93 155.5,-173.63 154.19,-180.5"/>
<text text-anchor="middle" x="141" y="-182.8" font-family="Times,serif" font-size="14.00">0</text>
</g>
<!-- 3&#45;&gt;2 -->
<g id="edge8" class="edge">
<title>3&#45;&gt;2</title>
<path fill="none" stroke="black" d="M443.08,-227.91C436.56,-171.1 412.94,0 365,0 99,0 99,0 99,0 52.51,0 31.97,-61.67 23.78,-99.06"/>
<polygon fill="black" stroke="black" points="20.26,-98.85 21.71,-109.34 27.12,-100.23 20.26,-98.85"/>
<text text-anchor="middle" x="227.5" y="-3.8" font-family="Times,serif" font-size="14.00">0</text>
</g>
<!-- 3&#45;&gt;0 -->
<g id="edge9" class="edge">
<title>3&#45;&gt;0</title>
<path fill="none" stroke="black" d="M435.67,-261.08C422.5,-280.28 396.5,-311 365,-311 181,-311 181,-311 181,-311 144.06,-311 121.13,-268.71 109.75,-239.69"/>
<polygon fill="black" stroke="black" points="112.94,-238.24 106.19,-230.07 106.37,-240.66 112.94,-238.24"/>
<text text-anchor="middle" x="273" y="-314.8" font-family="Times,serif" font-size="14.00">10</text>
</g>
<!-- 3&#45;&gt;4 -->
<g id="edge7" class="edge">
<title>3&#45;&gt;4</title>
<path fill="none" stroke="black" d="M441.44,-228.52C437,-211.06 427.73,-184.64 410,-169 404.93,-164.52 398.44,-161.48 391.97,-159.41"/>
<polygon fill="black" stroke="black" points="392.6,-155.96 382.05,-156.89 390.88,-162.74 392.6,-155.96"/>
<text text-anchor="middle" x="405" y="-172.8" font-family="Times,serif" font-size="14.00">0</text>
</g>
<!-- 3&#45;&gt;1 -->
<g id="edge10" class="edge">
<title>3&#45;&gt;1</title>
<path fill="none" stroke="black" d="M428.35,-242.12C384.15,-231.83 263.53,-203.75 209.64,-191.2"/>
<polygon fill="black" stroke="black" points="210.32,-187.77 199.79,-188.91 208.73,-194.59 210.32,-187.77"/>
<text text-anchor="middle" x="318.5" y="-221.8" font-family="Times,serif" font-size="14.00">8</text>
</g>
<!-- 4&#45;&gt;2 -->
<g id="edge5" class="edge">
<title>4&#45;&gt;2</title>
<path fill="none" stroke="black" d="M357.89,-137.97C347.52,-107.31 320.91,-46 274,-46 99,-46 99,-46 99,-46 67.24,-46 43.84,-77.91 30.81,-101.67"/>
<polygon fill="black" stroke="black" points="27.67,-100.12 26.17,-110.61 33.88,-103.34 27.67,-100.12"/>
<text text-anchor="middle" x="182" y="-49.8" font-family="Times,serif" font-size="14.00">10</text>
</g>
<!-- 4&#45;&gt;3 -->
<g id="edge4" class="edge">
<title>4&#45;&gt;3</title>
<path fill="none" stroke="black" d="M378.21,-166.47C387.51,-174.82 400.04,-186.62 410,-198 416.78,-205.75 423.6,-214.76 429.4,-222.86"/>
<polygon fill="black" stroke="black" points="426.63,-225.02 435.23,-231.2 432.36,-221 426.63,-225.02"/>
<text text-anchor="middle" x="405" y="-201.8" font-family="Times,serif" font-size="14.00">5</text>
</g>
<!-- 5 -->
<g id="node5" class="node">
<title>5</title>
<ellipse fill="none" stroke="black" cx="273" cy="-130" rx="18" ry="18"/>
<text text-anchor="middle" x="273" y="-126.3" font-family="Times,serif" font-size="14.00">5</text>
</g>
<!-- 4&#45;&gt;5 -->
<g id="edge6" class="edge">
<title>4&#45;&gt;5</title>
<path fill="none" stroke="black" d="M353.58,-140.24C347.42,-132.02 338.56,-122.55 328,-118 318.8,-114.04 308.14,-115.3 298.73,-118.18"/>
<polygon fill="black" stroke="black" points="297.27,-114.99 289.14,-121.77 299.73,-121.54 297.27,-114.99"/>
<text text-anchor="middle" x="318.5" y="-121.8" font-family="Times,serif" font-size="14.00">&#45;1</text>
</g>
<!-- 5&#45;&gt;4 -->
<g id="edge18" class="edge">
<title>5&#45;&gt;4</title>
<path fill="none" stroke="black" d="M290.74,-134.7C303.67,-138.33 321.8,-143.43 336.67,-147.6"/>
<polygon fill="black" stroke="black" points="335.76,-150.98 346.33,-150.32 337.65,-144.24 335.76,-150.98"/>
<text text-anchor="middle" x="318.5" y="-147.8" font-family="Times,serif" font-size="14.00">15</text>
</g>
<!-- 5&#45;&gt;1 -->
<g id="edge19" class="edge">
<title>5&#45;&gt;1</title>
<path fill="none" stroke="black" d="M255.86,-136.54C244.83,-141.3 230.09,-148.25 218,-156 213.1,-159.14 208.12,-162.88 203.51,-166.61"/>
<polygon fill="black" stroke="black" points="201.1,-164.06 195.71,-173.19 205.61,-169.42 201.1,-164.06"/>
<text text-anchor="middle" x="227.5" y="-159.8" font-family="Times,serif" font-size="14.00">10</text>
</g>
<!-- 1&#45;&gt;0 -->
<g id="edge16" class="edge">
<title>1&#45;&gt;0</title>
<path fill="none" stroke="black" d="M164.83,-190.66C153.89,-194.49 139.19,-199.63 126.66,-204.02"/>
<polygon fill="black" stroke="black" points="125.47,-200.73 117.19,-207.33 127.78,-207.33 125.47,-200.73"/>
<text text-anchor="middle" x="141" y="-203.8" font-family="Times,serif" font-size="14.00">7</text>
</g>
<!-- 1&#45;&gt;3 -->
<g id="edge15" class="edge">
<title>1&#45;&gt;3</title>
<path fill="none" stroke="black" d="M196.71,-195.83C202.94,-200.37 210.57,-205.41 218,-209 292.67,-245.05 317.29,-244.12 400,-250 405.77,-250.41 411.95,-250.25 417.83,-249.82"/>
<polygon fill="black" stroke="black" points="418.32,-253.29 427.92,-248.81 417.62,-246.32 418.32,-253.29"/>
<text text-anchor="middle" x="318.5" y="-247.8" font-family="Times,serif" font-size="14.00">3</text>
</g>
<!-- 1&#45;&gt;4 -->
<g id="edge14" class="edge">
<title>1&#45;&gt;4</title>
<path fill="none" stroke="black" d="M200.03,-182.83C227.2,-179.28 281.97,-171.74 328,-163 330.72,-162.48 333.55,-161.91 336.37,-161.3"/>
<polygon fill="black" stroke="black" points="337.32,-164.68 346.32,-159.08 335.8,-157.84 337.32,-164.68"/>
<text text-anchor="middle" x="273" y="-178.8" font-family="Times,serif" font-size="14.00">1</text>
</g>
<!-- 1&#45;&gt;5 -->
<g id="edge17" class="edge">
<title>1&#45;&gt;5</title>
<path fill="none" stroke="black" d="M186.75,-167.48C191.21,-151.46 200.38,-128.68 218,-118 226.78,-112.68 237.64,-113.9 247.31,-117.11"/>
<polygon fill="black" stroke="black" points="246.25,-120.46 256.83,-121 248.9,-113.98 246.25,-120.46"/>
<text text-anchor="middle" x="227.5" y="-121.8" font-family="Times,serif" font-size="14.00">11</text>
</g>
</g>
</svg>
